<svg xmlns="http://www.w3.org/2000/svg" version="1.1" xmlns:xlink="http://www.w3.org/1999/xlink" xmlns:svgjs="http://svgjs.com/svgjs" width="200" height="205"><svg xmlns="http://www.w3.org/2000/svg" xml:space="preserve" viewBox="0 0 200 205" fill="#b09043" class="">
    <path d="M199.02 93.55c-4.17-12.24-12.42-33.01-12.51-33.23-2.49-6.21-7.34-9.96-14.01-9.19-5.3.62-10.64 1.46-10.64 1.46-5.15.84-8.55 3.84-11.82 10.84L133.46 97.6v.01c6.45-3.88 12.1-8.25 20.06-12.34 1.91-.98 3.61-2.17 4.36-4.09 0 0 6.86-16.5 7.53-18.24.67-1.74 1.71-3.41 3.01-3.61.93-.15 2 1 2.67 3.14.59 1.9 7.16 24.57 7.52 26.43-20.59-6.33-35.3 11.92-51.48 19.42-6.18 2.86-8.47-.6-7.72-5.28.74-4.68 7.28-37.67 7.28-37.67.38-2.01-.01-3.74-1.12-5.01-1.52-1.72-4.12-2.46-7.13-1.98l-9.83 1.6-8.77 48.09-.02.14c-.11-.4-.24-.81-.37-1.2C95.26 94.78 87.02 74 86.93 73.78c-2.49-6.21-7.34-9.96-14.01-9.18-5.3.61-10.64 1.45-10.64 1.45-5.15.84-8.55 3.84-11.82 10.84l-16.59 34.18s0 .01 0 0c6.45-3.87 12.1-8.24 20.05-12.34 1.91-.98 3.61-2.17 4.36-4.09 0 0 6.87-16.5 7.53-18.24.67-1.74 1.71-3.41 3.01-3.62.93-.15 2 1 2.67 3.14.59 1.9 7.16 24.57 7.52 26.43-20.6-6.33-35.3 11.92-51.48 19.42-6.18 2.86-8.47-.6-7.72-5.28.74-4.68 7.28-37.67 7.28-37.67.38-2.01-.01-3.74-1.13-5.01-1.51-1.72-4.11-2.46-7.13-1.98l-9.82 1.6-8.77 48.09c-1.81 10.89 6.82 15.98 23.93 9.15 17.44-6.97 49.6-22.57 62.05-6.58 9.46-2.37 13.01-6.02 13.92-9.81 2.08 6.3 10.24 8.26 23.61 2.92 17.44-6.97 49.6-22.57 62.05-6.58 15.63-3.89 15.2-11.29 13.22-17.07M83.2 111.57c-2.27-3.85-15-5.99-25.71-3.64v-.01c6.28-3.68 26.37-5.76 25.71 3.65m99.59-13.47c-2.27-3.85-15-5.99-25.71-3.64v-.01c6.28-3.68 26.37-5.76 25.71 3.65m-72.88-49.36C99.94 53.77 86.8 43 78.25 57.75c9.69-3.02 19.56 7.66 31.66-9.01z"></path>
    <path d="M117.23 14.93c-.3-.26-.66-.42-1.05-.49a3.26 3.26 0 0 0-.83-.02c-2.8.29-6.97 3.77-10.38 6.31a21.26 21.26 0 0 1-3.75 2.4c-.93.39-2 .09-2.55-.76-1.39-2.14-4.15-6.2-7.21-9.84C85.12 4.98 74.33-2.58 67.66.85a6.83 6.83 0 0 0-2.89 2.66 6.96 6.96 0 0 0-.69 1.72 9.16 9.16 0 0 0-.27 1.92c-.2 5.36 3.45 12.44 5.76 17.61l.42.95c.8 1.85 1.36 3.39 1.42 4.45.01.18 0 .34-.02.49-.64 4.71-9.34 10.73-4.59 17.61 2.65 3.83 9.14 1.8 15.64-.15 5.73-1.72 11.47-3.37 14.58-.85.62.5 1.09.76 1.61.72.39-.03.8-.23 1.31-.62l.55-.46c.74-.65 1.51-1.44 2.3-2.34 4.49-5.07 9.62-13.55 12.54-20.19.17-.39.34-.77.49-1.15a30.66 30.66 0 0 0 1.65-4.95c.38-1.66.33-2.85-.24-3.34zM64.81 6.88c.14-4.67 6.75-10.7 20.08.43-4.21-3.01-15.47-9.77-20.08-.43zm22.7 36.84-1.08.18-1.45.29-.38.08c-1.96.43-3.82.91-5.47 1.2l-.25.04c-2.43.41-4.38.35-5.42-1.02a3.5 3.5 0 0 1-.52-1c-2.56-7.56 17.13-15.14 24.47-.75.18.34.28.66.31.93.02.14.02.26 0 .37l-.03.09a.65.65 0 0 1-.24.4c-.22.15-.57.15-1.02-.05a12.58 12.58 0 0 0-5.25-1.06c-1.22 0-2.45.12-3.67.3zm10.43-4.12c-3.7-6.26-12.61-10.18-18.11-13.01-3.98-2.05-6.67-5.36-7.69-8.5a8.4 8.4 0 0 1-.45-3.02 5.19 5.19 0 0 1 1.26-3.29c2.13-2.36 6.53-1.86 11.17 1.01.36.22.72.46 1.07.7 5.02 3.48 10.13 9.66 12.78 17.95a37.56 37.56 0 0 1 1.34 5.61c.11.65.19 1.32.27 1.99.22 2.08-.65 2.25-1.64.56zm-6.43 94.98c24.79-2.14 22.3 10.03 18.89 30.05l.02-.1c-3.41 20.02-5.06 32.11-29.85 34.25l-.28.02c-24.79 2.14-22.3-10.03-18.89-30.05l-.02.1c3.41-20.02 5.06-32.11 29.85-34.25m2.43 31.28c2.36-13.82 4.27-25.03-3.48-24.36s-9.66 11.87-12.01 25.69c-2.36 13.82-4.41 25.04 3.48 24.36 7.89-.68 9.66-11.87 12.01-25.69zm52.86-38.59c24.79-2.14 22.3 10.03 18.89 30.05l.02-.1c-3.41 20.02-5.06 32.11-29.85 34.25l-.28.02c-24.79 2.14-22.3-10.03-18.89-30.05l-.02.1c3.41-20.02 5.06-32.11 29.85-34.25m2.44 31.28c2.36-13.82 4.27-25.03-3.48-24.36s-9.66 11.87-12.01 25.69-4.41 25.04 3.48 24.36c7.89-.68 9.66-11.87 12.01-25.69zm-96.63-18.01c-2.86.37-5.65 2.14-7.58 4.55a742.48 742.48 0 0 1-12.06 13.05l2.35-.06c3.34-.08 5.4 2.51 4.78 6.01L32.37 205l17.04-2.2 9.61-54.59c.86-4.82-2.26-8.23-6.97-7.63zm127.63-6.53a4.57 4.57 0 0 1-3.36 1.4 4.55 4.55 0 0 1-3.35-1.4 4.59 4.59 0 0 1-1.38-3.36c0-1.31.46-2.42 1.39-3.35a4.54 4.54 0 0 1 3.34-1.38 4.6 4.6 0 0 1 3.36 1.38 4.54 4.54 0 0 1 1.39 3.35c0 1.31-.46 2.43-1.39 3.36m-6.23-6.24a3.96 3.96 0 0 0-1.19 2.89c0 1.14.39 2.11 1.18 2.91a3.9 3.9 0 0 0 2.89 1.2c1.13 0 2.09-.4 2.89-1.2a4 4 0 0 0 1.19-2.91c0-1.13-.4-2.09-1.19-2.89-.8-.8-1.76-1.2-2.89-1.2a3.86 3.86 0 0 0-2.88 1.2m2.78.26c.64 0 1.12.06 1.42.19.54.22.81.66.81 1.32 0 .47-.17.81-.51 1.03-.18.12-.43.2-.75.25.4.07.7.24.89.51.19.27.28.54.28.81v.38l.01.39c.01.14.02.23.05.27l.03.07h-.86l-.01-.05-.01-.06-.02-.17v-.41c0-.6.2.09-.49-1.19a2.2 2.2 0 0 0-1.02-.17h-.72v2.05h-.92v-5.2h1.82zm.99.82c-.23-.13-.6-.19-1.11-.19h-.78v1.89h.83c.39 0 .68-.04.88-.12.36-.14.54-.41.54-.81-.01-.39-.13-.64-.36-.77"></path>
</svg><style>@media (prefers-color-scheme: light) { :root { filter: none; } }
</style></svg>